<mxfile host="app.diagrams.net" agent="Mozilla/5.0 (Windows NT 10.0; Win64; x64) AppleWebKit/537.36 (KHTML, like Gecko) Chrome/137.0.0.0 Safari/537.36" version="26.2.13">
  <diagram name="Página-1" id="wQRHN90T4JhSuk2dx7sK">
    <mxGraphModel dx="920" dy="1637" grid="1" gridSize="10" guides="1" tooltips="1" connect="1" arrows="1" fold="1" page="1" pageScale="1" pageWidth="827" pageHeight="1169" math="0" shadow="0">
      <root>
        <mxCell id="0" />
        <mxCell id="1" parent="0" />
        <mxCell id="8wYtVNuuBRvzmAR_a-_L-1" value="Usuario" style="shape=umlActor;verticalLabelPosition=bottom;verticalAlign=top;html=1;outlineConnect=0;" vertex="1" parent="1">
          <mxGeometry x="90" y="100" width="30" height="60" as="geometry" />
        </mxCell>
        <mxCell id="8wYtVNuuBRvzmAR_a-_L-5" value="BiblioFIS" style="swimlane;whiteSpace=wrap;html=1;" vertex="1" parent="1">
          <mxGeometry x="160" y="-50" width="570" height="630" as="geometry" />
        </mxCell>
        <mxCell id="8wYtVNuuBRvzmAR_a-_L-4" value="Buscar libro por título" style="ellipse;whiteSpace=wrap;html=1;" vertex="1" parent="8wYtVNuuBRvzmAR_a-_L-5">
          <mxGeometry x="170" y="40" width="190" height="70" as="geometry" />
        </mxCell>
        <mxCell id="8wYtVNuuBRvzmAR_a-_L-6" value="Buscar libro por autor" style="ellipse;whiteSpace=wrap;html=1;" vertex="1" parent="8wYtVNuuBRvzmAR_a-_L-5">
          <mxGeometry x="172" y="120" width="200" height="70" as="geometry" />
        </mxCell>
        <mxCell id="8wYtVNuuBRvzmAR_a-_L-7" value="Consultar horarios de atención" style="ellipse;whiteSpace=wrap;html=1;" vertex="1" parent="8wYtVNuuBRvzmAR_a-_L-5">
          <mxGeometry x="162" y="280" width="220" height="70" as="geometry" />
        </mxCell>
        <mxCell id="8wYtVNuuBRvzmAR_a-_L-8" value="Consultar horarios de atención" style="ellipse;whiteSpace=wrap;html=1;" vertex="1" parent="8wYtVNuuBRvzmAR_a-_L-5">
          <mxGeometry x="162" y="200" width="220" height="70" as="geometry" />
        </mxCell>
        <mxCell id="8wYtVNuuBRvzmAR_a-_L-17" value="Cargar conocimiento Inicial" style="ellipse;whiteSpace=wrap;html=1;" vertex="1" parent="8wYtVNuuBRvzmAR_a-_L-5">
          <mxGeometry x="162" y="390" width="220" height="70" as="geometry" />
        </mxCell>
        <mxCell id="8wYtVNuuBRvzmAR_a-_L-18" value="Actualizar base de conocimiento" style="ellipse;whiteSpace=wrap;html=1;" vertex="1" parent="8wYtVNuuBRvzmAR_a-_L-5">
          <mxGeometry x="155" y="490" width="220" height="70" as="geometry" />
        </mxCell>
        <mxCell id="8wYtVNuuBRvzmAR_a-_L-10" value="" style="endArrow=none;html=1;rounded=0;exitX=0.75;exitY=0.1;exitDx=0;exitDy=0;exitPerimeter=0;entryX=0;entryY=0.5;entryDx=0;entryDy=0;" edge="1" parent="1" source="8wYtVNuuBRvzmAR_a-_L-1" target="8wYtVNuuBRvzmAR_a-_L-4">
          <mxGeometry width="50" height="50" relative="1" as="geometry">
            <mxPoint x="290" y="160" as="sourcePoint" />
            <mxPoint x="340" y="110" as="targetPoint" />
          </mxGeometry>
        </mxCell>
        <mxCell id="8wYtVNuuBRvzmAR_a-_L-11" value="" style="endArrow=none;html=1;rounded=0;exitX=0.75;exitY=0.1;exitDx=0;exitDy=0;exitPerimeter=0;" edge="1" parent="1" source="8wYtVNuuBRvzmAR_a-_L-1" target="8wYtVNuuBRvzmAR_a-_L-6">
          <mxGeometry width="50" height="50" relative="1" as="geometry">
            <mxPoint x="123" y="116" as="sourcePoint" />
            <mxPoint x="340" y="35" as="targetPoint" />
          </mxGeometry>
        </mxCell>
        <mxCell id="8wYtVNuuBRvzmAR_a-_L-12" value="" style="endArrow=none;html=1;rounded=0;entryX=0.036;entryY=0.286;entryDx=0;entryDy=0;entryPerimeter=0;exitX=0.75;exitY=0.1;exitDx=0;exitDy=0;exitPerimeter=0;" edge="1" parent="1" source="8wYtVNuuBRvzmAR_a-_L-1" target="8wYtVNuuBRvzmAR_a-_L-8">
          <mxGeometry width="50" height="50" relative="1" as="geometry">
            <mxPoint x="133" y="126" as="sourcePoint" />
            <mxPoint x="350" y="45" as="targetPoint" />
          </mxGeometry>
        </mxCell>
        <mxCell id="8wYtVNuuBRvzmAR_a-_L-14" value="" style="endArrow=none;html=1;rounded=0;exitX=0.75;exitY=0.1;exitDx=0;exitDy=0;exitPerimeter=0;entryX=0.064;entryY=0.257;entryDx=0;entryDy=0;entryPerimeter=0;" edge="1" parent="1" source="8wYtVNuuBRvzmAR_a-_L-1" target="8wYtVNuuBRvzmAR_a-_L-7">
          <mxGeometry width="50" height="50" relative="1" as="geometry">
            <mxPoint x="143" y="136" as="sourcePoint" />
            <mxPoint x="360" y="55" as="targetPoint" />
          </mxGeometry>
        </mxCell>
        <mxCell id="8wYtVNuuBRvzmAR_a-_L-15" value="Administrador" style="shape=umlActor;verticalLabelPosition=bottom;verticalAlign=top;html=1;outlineConnect=0;" vertex="1" parent="1">
          <mxGeometry x="90" y="400" width="30" height="60" as="geometry" />
        </mxCell>
        <mxCell id="8wYtVNuuBRvzmAR_a-_L-19" value="" style="endArrow=none;html=1;rounded=0;exitX=0.5;exitY=0.5;exitDx=0;exitDy=0;exitPerimeter=0;entryX=0.005;entryY=0.614;entryDx=0;entryDy=0;entryPerimeter=0;" edge="1" parent="1" source="8wYtVNuuBRvzmAR_a-_L-15" target="8wYtVNuuBRvzmAR_a-_L-17">
          <mxGeometry width="50" height="50" relative="1" as="geometry">
            <mxPoint x="109" y="300" as="sourcePoint" />
            <mxPoint x="332" y="442" as="targetPoint" />
          </mxGeometry>
        </mxCell>
        <mxCell id="8wYtVNuuBRvzmAR_a-_L-20" value="" style="endArrow=none;html=1;rounded=0;exitX=0.5;exitY=0.5;exitDx=0;exitDy=0;exitPerimeter=0;entryX=0;entryY=0.5;entryDx=0;entryDy=0;" edge="1" parent="1" source="8wYtVNuuBRvzmAR_a-_L-15" target="8wYtVNuuBRvzmAR_a-_L-18">
          <mxGeometry width="50" height="50" relative="1" as="geometry">
            <mxPoint x="115" y="410" as="sourcePoint" />
            <mxPoint x="320" y="450" as="targetPoint" />
          </mxGeometry>
        </mxCell>
      </root>
    </mxGraphModel>
  </diagram>
</mxfile>
